<svg xmlns="http://www.w3.org/2000/svg" viewBox="0 0 356 64">
    <defs>
        <style>.cls-1{fill:#111b3b;}.cls-2{fill:#fff;}.cls-3{fill:#101839;}.cls-4{fill:#c8ab6f;}</style>
    </defs>
    <title>标签栏</title>
    <g id="图层_2" data-name="图层 2">
        <g id="图层_1-2" data-name="图层 1">
            <path class="cls-1"
                  d="M40.22,63.21a19.66,19.66,0,0,1-7.5-1.51,1.7,1.7,0,0,0-.67-.16,1.63,1.63,0,0,0-.61.13,19,19,0,0,1-14.82-.44,15.6,15.6,0,0,1-1.36-.78L15,60.3A18.44,18.44,0,0,1,5.51,43.51c0-.53,0-1.07,0-1.59a1,1,0,0,0-.15-.55A19.18,19.18,0,0,1,15.9,10.21a.88.88,0,0,0,.43-.33A19.32,19.32,0,0,1,32.68.79a19.1,19.1,0,0,1,16.58,9.59c.16.27.33.32.82.45h0a19.13,19.13,0,0,1,13.5,24,19.63,19.63,0,0,1-4.18,7.44.79.79,0,0,0-.13.44A19.17,19.17,0,0,1,40.22,63.21Z"/>
            <path class="cls-2"
                  d="M32.68,1.59a18.29,18.29,0,0,1,15.9,9.19,1.81,1.81,0,0,0,1.32.83,18.33,18.33,0,0,1,13,23,18.79,18.79,0,0,1-4,7.14,1.54,1.54,0,0,0-.33,1A18.37,18.37,0,0,1,40.22,62.41,18.89,18.89,0,0,1,33,61a2.38,2.38,0,0,0-1.86,0,18.51,18.51,0,0,1-6.61,1.25,18.75,18.75,0,0,1-7.61-1.67c-.39-.17-1.38-.8-1.53-.89a17.41,17.41,0,0,1-9-13.28,43.92,43.92,0,0,1-.13-4.45,1.75,1.75,0,0,0-.33-1A18.38,18.38,0,0,1,16.08,11a1.69,1.69,0,0,0,.92-.68A18.44,18.44,0,0,1,32.68,1.59m0-1.59h0a20.13,20.13,0,0,0-17,9.43l0,0a20,20,0,0,0-11,32.36,1.06,1.06,0,0,1,0,.14c0,.5,0,1,0,1.55a18.75,18.75,0,0,0,.14,3.06A19,19,0,0,0,14.64,61l.2.13c.57.34,1.1.67,1.46.83a20.51,20.51,0,0,0,8.25,1.8,20.18,20.18,0,0,0,7.17-1.35,1,1,0,0,1,.33-.07,1,1,0,0,1,.37.09A20.42,20.42,0,0,0,40.22,64,20,20,0,0,0,60.1,42.73a20.36,20.36,0,0,0,4.27-7.66A19.7,19.7,0,0,0,62.7,19.66a19.92,19.92,0,0,0-12.39-9.59h0l-.35-.1A19.9,19.9,0,0,0,32.68,0Z"/>
            <path class="cls-2"
                  d="M62.64,29.77A17.44,17.44,0,0,0,49.43,12.53a2.59,2.59,0,0,1-1.74-1.28c-3.32-5.42-8.15-8.47-14.53-8.63-6.57-.17-11.67,2.7-15.25,8.21A2.5,2.5,0,0,1,16.19,12a16.77,16.77,0,0,0-9.87,6.2,17.29,17.29,0,0,0,.57,22.21,2,2,0,0,1,.41,1.31A17.14,17.14,0,0,0,11.66,55.4a17.28,17.28,0,0,0,19.4,4.52,1.92,1.92,0,0,1,1.71-.17,17.34,17.34,0,0,0,24.7-17,2,2,0,0,1,.59-1.68A17,17,0,0,0,62.64,29.77Z"/>
            <circle class="cls-1" cx="32.11" cy="33.89" r="19.23"/>
            <path class="cls-2"
                  d="M32.11,51.86a18,18,0,1,1,18-18A18,18,0,0,1,32.11,51.86Zm0-35.6A17.64,17.64,0,1,0,49.75,33.89,17.65,17.65,0,0,0,32.11,16.26Z"/>
            <path class="cls-1" d="M9.4,29.43l.16-.74.74.16-.16.73Z"/>
            <path class="cls-1"
                  d="M10.15,23.37a3.11,3.11,0,0,0,.2.41,5.31,5.31,0,0,0-.86.42,2.58,2.58,0,0,0-.19-.34C9.59,23.68,9.87,23.51,10.15,23.37Zm.77-1.83c.13-.25.25-.52.37-.79l.37.2c-.15.25-.28.5-.4.73l-.15.29,2.63,1.38L14,23c.14-.26.28-.55.43-.87l.36.19-.46.85-.57,1.08q-.21.39-.45.9l-.36-.19c.18-.32.35-.62.48-.88l.18-.33-2.64-1.38-.1.19c-.13.25-.27.51-.4.79l-.36-.19c.16-.28.31-.54.43-.78Zm.15,2.66a1,1,0,0,0,.25.4,4.08,4.08,0,0,0-.83.54,3.33,3.33,0,0,0-.24-.34A6.34,6.34,0,0,1,11.07,24.2Zm1.46.88c.26.31.48.57.67.77a2.81,2.81,0,0,0-.47.36,3.18,3.18,0,0,0-.47-.8,6.22,6.22,0,0,0-.62-.76,2.25,2.25,0,0,0,.42-.3A2.64,2.64,0,0,0,12.53,25.08Z"/>
            <path class="cls-1"
                  d="M13.59,17.92a3.86,3.86,0,0,0-.4-.34l.31-.33a2.14,2.14,0,0,0,.35.39l.89-.94c-.17-.16-.3-.28-.39-.35l.29-.31a4.18,4.18,0,0,0,.37.37l.42-.45.4-.45.27.25c-.13.12-.27.26-.43.43l-.42.45.4.36-.27.29-.4-.37-.89.95.41.38-.28.3a5,5,0,0,0-.39-.4l-.43.45c-.09.09-.2.22-.34.39l-.27-.25.39-.38Zm1.47-.09.19.22.9-1a2.62,2.62,0,0,0,.41.47l1,1.05a.46.46,0,0,1,.16.44,3.68,3.68,0,0,1-.35.61.72.72,0,0,0-.47-.15,2.63,2.63,0,0,0,.37-.4c.05-.07,0-.19-.1-.34l-1-1.14-.63.66a4,4,0,0,1,.58.93,2.23,2.23,0,0,1,.17.79,3.33,3.33,0,0,1-.08,1,.85.85,0,0,0-.47.11,2.64,2.64,0,0,0,.17-.89,2.2,2.2,0,0,0-.16-.84,3.06,3.06,0,0,0-.46-.79l-.57.6-.48.54-.26-.25.53-.54.56-.59-.48-.45a3.57,3.57,0,0,0,.38-.3A.71.71,0,0,0,15.06,17.83Zm.19,2.11.09.67a1.39,1.39,0,0,0-.38.12,4,4,0,0,0-.05-.62,2.85,2.85,0,0,0-.15-.61l.42-.19C15.19,19.5,15.22,19.71,15.25,19.94Zm2.58-2.6a1.84,1.84,0,0,0,0,.4,8.6,8.6,0,0,0-1-.08c0-.14,0-.26,0-.38A8.64,8.64,0,0,1,17.83,17.34Z"/>
            <path class="cls-1"
                  d="M18.36,13.56l1.23-.77.18.3-.67.38q.09.15.21.39c.35-.21.61-.37.77-.48l.18.3-.84.48,0,.14a9.68,9.68,0,0,1,1-.15,3.57,3.57,0,0,0,0,.42,3.58,3.58,0,0,0-1,0,2.87,2.87,0,0,1-.36,1.08,1.57,1.57,0,0,0-.4-.09A2.08,2.08,0,0,0,19,15a1.2,1.2,0,0,0,.06-.6c-.41.25-.7.43-.87.55l-.18-.3c.18-.1.5-.28.95-.56a1.79,1.79,0,0,0-.21-.39l-.38.23a2.64,2.64,0,0,1,0,.49H18a4.81,4.81,0,0,0,0-.62,2,2,0,0,0-.05-.6,2.37,2.37,0,0,0,.43-.08A1.58,1.58,0,0,0,18.36,13.56Zm3.92,1.18c.22.37.39.64.52.82l-.35.21-.12-.2-1.74,1.05.12.2-.35.21c-.1-.18-.25-.46-.47-.82s-.41-.66-.53-.84L21.8,13.9Q21.95,14.2,22.28,14.74Zm-.47,0-.22-.37-1.74,1.05.22.37Zm-1.09-.61-.42-.72q-.27-.47-.45-.72l1.31-.79c.07.14.2.37.4.71s.36.57.47.73Zm1.45,1.21L22,15,20.22,16l.21.35Zm-.65-2.05L21,12.34l-.63.38.55.92Z"/>
            <path class="cls-1"
                  d="M25.54,11.26l-1,.36a4.07,4.07,0,0,0-.59.26,3.53,3.53,0,0,0-.24-.35A1.64,1.64,0,0,0,24,11a3.78,3.78,0,0,0,.23-.86.69.69,0,0,0,.24.05l.27,0a1.62,1.62,0,0,0-.22.42,8.47,8.47,0,0,1-.34.78l1.15-.38a3.58,3.58,0,0,0-.43-.3c.07-.08.15-.17.24-.29l.39.29.49.33-.27.34A1.93,1.93,0,0,0,25.54,11.26ZM26,13.87a.39.39,0,0,0,0-.21l-.08-.26-1,.28.24.88-.36.1c0-.26-.11-.48-.16-.68l-.35-1.25c-.06-.22-.12-.42-.18-.59l1.71-.48a6.33,6.33,0,0,0,.16.62l.43,1.57a.3.3,0,0,1-.1.31,2.76,2.76,0,0,1-.4.21,2,2,0,0,0-.25-.33C25.89,14,26,13.92,26,13.87Zm-.36-1.46-.1-.35-1,.28.1.35Zm.19.69-.11-.39-1,.28.11.39Zm.49-2.66.44-.37a3.55,3.55,0,0,0,.4-.45l.35.25a5.16,5.16,0,0,0-.42.35,6.22,6.22,0,0,1-.69.52l.08.28c0,.15.15.2.32.15l.54-.15c.13,0,.16-.22.11-.55l.42.06c0,.42-.08.67-.3.73l-.84.23c-.3.08-.49,0-.56-.29l-.26-.95-.16-.48.38-.1a4.06,4.06,0,0,0,.13.55Zm1.39,1.8a8.39,8.39,0,0,1-.74.55l.14.52c0,.15.13.21.27.17l.67-.19c.09,0,.12-.22.08-.52l.41.05c0,.42-.06.66-.26.71l-1,.28a.32.32,0,0,1-.45-.26l-.34-1.21c-.05-.18-.1-.35-.15-.5l.37-.1c0,.15.07.32.11.49l.07.24a3.55,3.55,0,0,0,.44-.34,2.69,2.69,0,0,0,.41-.45,3.3,3.3,0,0,0,.37.26A2.44,2.44,0,0,0,27.73,12.24Z"/>
            <path class="cls-1"
                  d="M31,8.89h.39a4.7,4.7,0,0,0,0,.56,4.62,4.62,0,0,0,.5,0v.35l-.5,0v.52h.15a3.46,3.46,0,0,0,.35-.49,2.3,2.3,0,0,0,.27-.6l.35.22a1.31,1.31,0,0,0-.2.3c-.1.17-.23.36-.38.57l.46,0v.35c-.19,0-.42,0-.7,0q-.24.24-.48.45h.93v.29a1.58,1.58,0,0,0-.3.17,2.43,2.43,0,0,0-.32.24V12c.3,0,.58-.08.85-.14v.31l-.85.14v.6c0,.27-.23.42-.74.46a1,1,0,0,0-.13-.4c.34,0,.52,0,.52-.2v-.4a5.72,5.72,0,0,0-1.05.23l-.15-.39q.27,0,1.2-.15a1.56,1.56,0,0,0,0-.39l.41-.29h-.74a5.42,5.42,0,0,1-.64.42,1.45,1.45,0,0,0-.27-.29,5.58,5.58,0,0,0,.64-.33V11h.18a5.82,5.82,0,0,0,.52-.45l-1.24,0v-.35c.23,0,.58,0,1.05,0V9.76l-.7,0V9.43c.19,0,.43,0,.7,0C31,9.23,31,9.05,31,8.89ZM33,9.9c.7,0,1.15,0,1.37,0v.35l-.44,0c0,.26-.06.5-.1.74s-.09.45-.15.67a2.59,2.59,0,0,1-.26.66,2.24,2.24,0,0,0,1,.68,1,1,0,0,0-.27.35,3.34,3.34,0,0,1-1-.76,3.34,3.34,0,0,1-1.22.83,1.45,1.45,0,0,0-.23-.31A2.7,2.7,0,0,0,33,12.26,5.72,5.72,0,0,1,32.58,11l-.21.33a2.05,2.05,0,0,0-.25-.27,3.69,3.69,0,0,0,.42-.8,6.22,6.22,0,0,0,.25-.85l.09-.52a3.22,3.22,0,0,0,.42.16A3.94,3.94,0,0,0,33,9.9Zm.21,2a5.5,5.5,0,0,0,.37-1.72h-.68l-.13.37A4.61,4.61,0,0,0,33.24,11.93Z"/>
            <path class="cls-1"
                  d="M38.82,14a.56.56,0,0,0,.15-.33l-2-.56-.22.75-.35-.1.24-.76.24-.88q.09-.31.18-.69l2.72.76c-.08.22-.14.43-.2.63l-.36,1.27c-.06.22-.16.34-.29.34a2.56,2.56,0,0,1-.51,0,2,2,0,0,0,0-.43C38.61,14,38.75,14,38.82,14Zm1.32-2.13-.32.19a1.58,1.58,0,0,0-.22-.32l-1.2-.26a13,13,0,0,0-1.3-.24,1.07,1.07,0,0,0-.07-.41,1,1,0,0,0,.44-.11,1.91,1.91,0,0,0,.44-.28l-.61-.18-.62-.15.09-.32c.22.08.42.14.6.19l1.23.35a2.84,2.84,0,0,0,0-.47,1.75,1.75,0,0,0,.4,0c0,.32.06.52.07.6l1,.28.77.19-.09.32L39.92,11l-1.86-.53a2.46,2.46,0,0,0,.17.27l-.28.1-.4.17.91.22.88.18-.21-.26a1.66,1.66,0,0,0,.3-.19Zm-1.09,1.51.1-.34-2-.56-.09.33Zm.18-.62.1-.37-2-.57-.11.38Z"/>
            <path class="cls-1"
                  d="M44.15,12.25l.43.24-.19.3a3.4,3.4,0,0,0-.4-.27l-.13-.08c-.25.25-.51.49-.77.71l.77.47c-.12.18-.23.35-.33.52l-.47.76c-.1.18-.23.39-.37.65l-.32-.19.2-.33-.46-.28-.4.66-.32-.19c.22-.32.38-.59.5-.78l.6-1c-.13.06-.3.12-.5.19a1.48,1.48,0,0,0-.05-.41,2.28,2.28,0,0,0,.57-.17,2.48,2.48,0,0,0,.51-.32,2.71,2.71,0,0,0,.52-.5A4.84,4.84,0,0,0,43,12l.18-.3c.24.16.42.28.56.36Zm-1.39,2.48.63-1-.46-.28-.64,1Zm3.55-1.3c.21.13.39.23.53.3l-.19.29-.4-.26L45.51,15l.55.32-.2.33c-.15-.11-.33-.22-.53-.35l-.81,1.32-.39.67-.33-.2c.24-.36.39-.6.47-.73L45,15.1l-.56-.35a4.85,4.85,0,0,1-.85,1,3,3,0,0,1-1.09.52,1,1,0,0,0-.17-.42,1.86,1.86,0,0,0,1-.38,3.67,3.67,0,0,0,.82-.88l-.48-.26L43.9,14l.45.3.74-1.23a4.08,4.08,0,0,0-.42-.23l.18-.3.47.31Zm-1.1,1.37L46,13.58l-.56-.35-.74,1.23Z"/>
            <path class="cls-1"
                  d="M48.38,20.19c-.12.11-.16.2-.11.27a2,2,0,0,0,.21.24c.09.08.17.12.24.1a1.34,1.34,0,0,0,.38-.25.59.59,0,0,0,.13.49c-.3.16-.51.22-.61.18a2.32,2.32,0,0,1-.5-.42c-.23-.24-.33-.42-.31-.53a.69.69,0,0,1,.23-.34l.76-.72-.57-.6a2.32,2.32,0,0,1-.7.3,2.35,2.35,0,0,1-.59,0,2.13,2.13,0,0,1-.59-.15,6.26,6.26,0,0,1-.66-.31,1.31,1.31,0,0,0,.11-.53,3.39,3.39,0,0,0,.62.42,1.77,1.77,0,0,0,.55.18,1.24,1.24,0,0,0,.51,0,2.67,2.67,0,0,0,.46-.2l-.49-.53c-.14-.15-.27-.27-.39-.38l.26-.24c.15.18.27.32.36.41l.51.55a3.19,3.19,0,0,0,.45-.45c.11.15.21.29.31.41a.57.57,0,0,0-.24.14l-.24.2.86.92L49,19.6Zm0-2.83a7.49,7.49,0,0,1-.91-.26c0-.15,0-.3,0-.43a4,4,0,0,0,.69.26,3,3,0,0,0,.79.15c0,.14,0,.29,0,.44Zm3,1.38a3.31,3.31,0,0,0-.3.25,3.9,3.9,0,0,0-.28.29L50.46,19l.36-.33-2.29-2.44-.43.4-.29-.31c.13-.1.24-.2.34-.29l.31-.32,1.33,1.41a3.71,3.71,0,0,0,.25-.53l.37.23c-.08.17-.16.35-.26.54a3.14,3.14,0,0,0-.31-.18Zm-1.28-.11c.07.25.15.6.25,1h-.45a7.78,7.78,0,0,0-.15-.85c-.07-.25-.13-.49-.2-.73l.38,0C49.94,18.18,50,18.37,50.07,18.63Z"/>
            <path class="cls-1"
                  d="M53,22l-.8.13a2.91,2.91,0,0,1-.43.75.82.82,0,0,1-.44.27.61.61,0,0,1-.46-.05.84.84,0,0,1-.36-.4,1.14,1.14,0,0,0,.36-.27c.08.23.17.35.27.35a.51.51,0,0,0,.31-.12.85.85,0,0,0,.28-.33,4.58,4.58,0,0,0,.23-.49l.59-.1a4,4,0,0,0,.64-.14l-.25-.48-3.44,1.78-.17-.33c.23-.1.49-.23.8-.39l2.18-1.13c.26-.13.49-.26.7-.39l.64,1.24Zm-.12,2.61c.11.21.21.4.31.56l-.29.15L52.71,25l-.15-.29-1.09.56c-.13.08-.18.16-.14.26a2.73,2.73,0,0,0,.13.25.2.2,0,0,0,.17.1,1.1,1.1,0,0,0,.38-.12,1.41,1.41,0,0,0,0,.41c-.32.09-.54.1-.64,0A1.82,1.82,0,0,1,51,25.6a.43.43,0,0,1,.24-.64l1.14-.59L52.19,24a2.93,2.93,0,0,1-.84.33,1.25,1.25,0,0,1-.77-.06,2,2,0,0,1-.61-.39.78.78,0,0,0,.13-.39c.4.41.74.58,1,.53a3.11,3.11,0,0,0,.89-.33c-.14-.26-.24-.45-.31-.56L52,23c.07.15.15.33.26.54Zm.55-.61c.13.24.23.43.31.56l-.29.15c-.06-.15-.16-.35-.28-.58l-.25-.49c-.13-.26-.25-.46-.34-.61l.29-.16a6.57,6.57,0,0,0,.3.61Zm1,.69-.32.18-.17-.34.39-.21-.89-1.71-.38.19-.18-.34a2.09,2.09,0,0,0,.3-.14,2.74,2.74,0,0,0,.32-.18l1.25,2.4A3.13,3.13,0,0,0,54.4,24.71Zm-.32-1.43a2.2,2.2,0,0,0,.28-.54.86.86,0,0,0,.31.17c-.15.31-.24.5-.29.59A1.11,1.11,0,0,0,54.08,23.28Z"/>
            <path class="cls-1" d="M54.68,28.76l.15.73-.74.16-.15-.74Z"/>
            <path class="cls-1"
                  d="M9.39,32.41a1,1,0,0,1-.67-.28.75.75,0,0,1-.16-.58A.77.77,0,0,1,8.82,31a.9.9,0,0,1,.69-.15l.17,0,0,.35-.22,0a.52.52,0,0,0-.4.08.35.35,0,0,0-.15.26.4.4,0,0,0,.1.33.67.67,0,0,0,.43.15l1.78.18,0,.35Z"/>
            <path class="cls-1" d="M8.48,33.62v-.31l1.74,0v.31Zm2.23,0v-.31h.4v.31Z"/>
            <path class="cls-1"
                  d="M8.58,36.2l0-.37a.19.19,0,0,1,.09,0,.42.42,0,0,1,.13,0,.64.64,0,0,1-.21-.25,1.16,1.16,0,0,1-.08-.32.64.64,0,0,1,.1-.42.41.41,0,0,1,.34-.2.49.49,0,0,1,.38.13,1,1,0,0,1,.22.47,2.43,2.43,0,0,0,.1.37c0,.11.08.16.14.16a.36.36,0,0,0,.18-.08A.38.38,0,0,0,10,35.3.45.45,0,0,0,9.92,35a.32.32,0,0,0-.2-.1l0-.34a.54.54,0,0,1,.41.2.87.87,0,0,1,.18.49.79.79,0,0,1-.12.52.56.56,0,0,1-.42.2l-.85,0a.42.42,0,0,0-.17.05A.44.44,0,0,0,8.58,36.2Zm.54-.47.31,0a1.27,1.27,0,0,1-.06-.18,2.19,2.19,0,0,1-.08-.28A.53.53,0,0,0,9.17,35,.34.34,0,0,0,9,34.9a.19.19,0,0,0-.15.08.28.28,0,0,0-.06.21.71.71,0,0,0,.1.3A.61.61,0,0,0,9.12,35.73Z"/>
            <path class="cls-1"
                  d="M8.85,38l0-.31,1.1-.18a.39.39,0,0,0,.27-.14.3.3,0,0,0,.07-.26.51.51,0,0,0-.27-.34.8.8,0,0,0-.54-.09l-.78.13-.05-.31,1.72-.28,0,.31-.32,0a1.07,1.07,0,0,1,.31.22.85.85,0,0,1,.15.36.52.52,0,0,1-.09.44.5.5,0,0,1-.36.2Z"/>
            <path class="cls-1"
                  d="M10.7,39.68a1.34,1.34,0,0,0,0-.21.48.48,0,0,0-.07-.2.28.28,0,0,1-.09.1.55.55,0,0,1-.2.08.56.56,0,0,1-.46-.08A.61.61,0,0,1,9.6,39a.81.81,0,0,1,0-.17.79.79,0,0,1,0-.17l-.08,0H9.45s-.08,0-.09.13a1.35,1.35,0,0,0,.05.39,1.09,1.09,0,0,1,0,.62.41.41,0,0,1-.27.23.4.4,0,0,1-.41-.16,1.25,1.25,0,0,1-.24-.52,1.4,1.4,0,0,1,0-.63.32.32,0,0,1,.24-.26.36.36,0,0,1,.2,0,.63.63,0,0,1,.2.17.38.38,0,0,1,.08-.17.29.29,0,0,1,.16-.1.21.21,0,0,1,.17,0,.37.37,0,0,1,.15.13.49.49,0,0,1,.16-.16.51.51,0,0,1,.21-.1.59.59,0,0,1,.47.08.64.64,0,0,1,.26.39.69.69,0,0,1,0,.24.5.5,0,0,1-.08.2,1.2,1.2,0,0,1,.19.21.73.73,0,0,1,.08.25Zm-1.63,0s.07,0,.1-.1a.53.53,0,0,0,0-.35s0-.1,0-.17,0-.15,0-.25A.37.37,0,0,0,9,38.68a.32.32,0,0,0-.13,0,.22.22,0,0,0-.13.16,1.07,1.07,0,0,0,0,.44.77.77,0,0,0,.15.35A.2.2,0,0,0,9.07,39.69Zm1.19-.55a.35.35,0,0,0,.23-.13.27.27,0,0,0,0-.24.3.3,0,0,0-.14-.21.43.43,0,0,0-.48.11.3.3,0,0,0,0,.25.26.26,0,0,0,.14.2A.33.33,0,0,0,10.26,39.14Z"/>
            <path class="cls-1"
                  d="M10.25,41.56a.42.42,0,0,1-.42-.07,1.07,1.07,0,0,1-.3-1,.47.47,0,0,1,.34-.31l.1.29c-.12,0-.19.1-.2.2a.91.91,0,0,0,0,.32.53.53,0,0,0,.15.25.24.24,0,0,0,.2,0s.09,0,.13-.12a.88.88,0,0,0,0-.41.83.83,0,0,1,0-.51.48.48,0,0,1,.29-.23.42.42,0,0,1,.38.07.77.77,0,0,1,.29.45.79.79,0,0,1,0,.5.46.46,0,0,1-.3.28l-.1-.29a.22.22,0,0,0,.16-.15.6.6,0,0,0,0-.26.48.48,0,0,0-.15-.26.2.2,0,0,0-.18,0,.19.19,0,0,0-.14.13.62.62,0,0,0,0,.33,1.16,1.16,0,0,1,0,.58A.46.46,0,0,1,10.25,41.56Z"/>
            <path class="cls-1"
                  d="M10.51,43.52l-.12-.29.3-.12a.88.88,0,0,1-.34-.15.72.72,0,0,1-.23-.32.53.53,0,0,1,0-.44.57.57,0,0,1,.31-.28l1.13-.46.12.29-1,.42a.4.4,0,0,0-.24.19.32.32,0,0,0,0,.27.52.52,0,0,0,.34.28.87.87,0,0,0,.55,0l.73-.3.12.28Z"/>
            <path class="cls-1" d="M12,46.38l-.18-.3,2.25-1.39.19.31Z"/>
            <path class="cls-1"
                  d="M13.47,48.44l-.18-.25.9-.66a.41.41,0,0,0,.18-.24.32.32,0,0,0-.06-.27.49.49,0,0,0-.39-.18.81.81,0,0,0-.53.16l-.63.47-.19-.25,1.4-1,.18.25-.26.2a1.12,1.12,0,0,1,.38.06.66.66,0,0,1,.29.25.57.57,0,0,1,.13.43.6.6,0,0,1-.23.34Z"/>
            <path class="cls-1"
                  d="M15.05,49.57a.44.44,0,0,1-.41.1.92.92,0,0,1-.42-.28,1,1,0,0,1-.26-.53.47.47,0,0,1,.19-.43l.2.23a.24.24,0,0,0-.1.26.8.8,0,0,0,.16.28.45.45,0,0,0,.24.17.22.22,0,0,0,.19,0,.24.24,0,0,0,.07-.16.84.84,0,0,0-.16-.37.87.87,0,0,1-.19-.49.5.5,0,0,1,.18-.33.45.45,0,0,1,.37-.08.79.79,0,0,1,.45.3.74.74,0,0,1,.21.46.42.42,0,0,1-.16.37l-.2-.23a.21.21,0,0,0,.08-.2.54.54,0,0,0-.13-.23.46.46,0,0,0-.24-.17.22.22,0,0,0-.18,0,.23.23,0,0,0-.08.17.75.75,0,0,0,.15.31,1,1,0,0,1,.2.53A.41.41,0,0,1,15.05,49.57Z"/>
            <path class="cls-1"
                  d="M16.08,51.2l-.17-.08a1.45,1.45,0,0,1-.21-.18.65.65,0,0,1-.21-.42.55.55,0,0,1,.18-.43l.65-.66L16,49.06l.17-.18.38.37.42-.43.22.22-.42.43.45.44-.17.18-.46-.44-.66.67a.32.32,0,0,0-.1.19.26.26,0,0,0,.11.23,1.46,1.46,0,0,0,.22.17.67.67,0,0,0,.18.07Z"/>
            <path class="cls-1" d="M17.05,52.11l-.24-.2,1.12-1.33.23.2Zm1.43-1.71-.24-.2.26-.31.24.2Z"/>
            <path class="cls-1"
                  d="M19.09,53.57a.64.64,0,0,1-.18-.06,1.75,1.75,0,0,1-.24-.14A.59.59,0,0,1,18.4,53a.52.52,0,0,1,.11-.45l.53-.76-.43-.31.15-.2.43.3.35-.49.25.18-.35.49.52.37-.14.2L19.3,52l-.55.77a.31.31,0,0,0-.07.2.29.29,0,0,0,.14.21,1.21,1.21,0,0,0,.25.13.77.77,0,0,0,.19,0Z"/>
            <path class="cls-1"
                  d="M20.72,54.62l-.26-.16.16-.28a1.35,1.35,0,0,1-.36.09.73.73,0,0,1-.38-.12.53.53,0,0,1-.28-.34.56.56,0,0,1,.08-.41l.62-1,.27.16-.57,1a.42.42,0,0,0-.07.3.35.35,0,0,0,.16.22.49.49,0,0,0,.43,0,.83.83,0,0,0,.42-.35l.4-.68.27.15Z"/>
            <path class="cls-1"
                  d="M22.43,55.42l-.18,0-.26-.1a.64.64,0,0,1-.33-.34.51.51,0,0,1,0-.46l.4-.84-.47-.23.11-.22.47.23.27-.54.27.13-.26.55.57.28-.11.22-.57-.28-.41.85a.32.32,0,0,0,0,.21c0,.07.07.13.17.18a1.3,1.3,0,0,0,.27.1h.2Z"/>
            <path class="cls-1"
                  d="M24.46,55.65a.7.7,0,0,1-.39.33.84.84,0,0,1-.54,0,.82.82,0,0,1-.48-.45.85.85,0,0,1,0-.7.89.89,0,0,1,.46-.52.84.84,0,0,1,.66,0,.74.74,0,0,1,.42.39,1,1,0,0,1-.05.71l-1.17-.45a.65.65,0,0,0,0,.5.5.5,0,0,0,.29.26.42.42,0,0,0,.29,0,.38.38,0,0,0,.22-.18ZM24.31,55a.5.5,0,0,0,0-.33.47.47,0,0,0-.23-.18.49.49,0,0,0-.29,0,.5.5,0,0,0-.29.21Z"/>
            <path class="cls-1"
                  d="M28.18,56.34a.83.83,0,0,1-.38.58.83.83,0,0,1-1.15-.24.9.9,0,0,1-.1-.69.85.85,0,0,1,.37-.58.79.79,0,0,1,.63-.12.77.77,0,0,1,.52.36A.86.86,0,0,1,28.18,56.34Zm-.33-.07a.65.65,0,0,0-.06-.49.46.46,0,0,0-.3-.22.44.44,0,0,0-.36.08.6.6,0,0,0-.25.42.65.65,0,0,0,.05.49.46.46,0,0,0,.3.22.46.46,0,0,0,.37-.08A.63.63,0,0,0,27.85,56.27Z"/>
            <path class="cls-1"
                  d="M30.15,55.16a.85.85,0,0,0-.17-.1.9.9,0,0,0-.27-.06c-.12,0-.2,0-.24,0a.34.34,0,0,0-.09.2l-.05.37.63.08,0,.25-.63-.08-.19,1.47-.31,0L29,55.83l-.52-.07,0-.25.52.07.05-.35a.56.56,0,0,1,.22-.41.66.66,0,0,1,.47-.1l.26.06a.67.67,0,0,1,.17.08Z"/>
            <path class="cls-1" d="M33.08,57.51h-.36l-.09-2.64.35,0Z"/>
            <path class="cls-1"
                  d="M35.57,57.28l-.31,0-.13-1.11a.49.49,0,0,0-.13-.28.33.33,0,0,0-.26-.08.52.52,0,0,0-.35.25.82.82,0,0,0-.12.54l.1.78-.31,0-.2-1.72.31,0,0,.32a1,1,0,0,1,.24-.29.65.65,0,0,1,.37-.13.5.5,0,0,1,.61.47Z"/>
            <path class="cls-1"
                  d="M37.41,56.89l-.17.09a1.05,1.05,0,0,1-.26.07.62.62,0,0,1-.47-.06.54.54,0,0,1-.25-.39l-.18-.91-.52.1-.05-.25.52-.1-.12-.59.31-.06.11.59.63-.12,0,.24-.62.13.19.92a.3.3,0,0,0,.1.2.26.26,0,0,0,.24,0,1.25,1.25,0,0,0,.27-.08.71.71,0,0,0,.17-.11Z"/>
            <path class="cls-1"
                  d="M39.17,55.85a.63.63,0,0,1-.12.5.79.79,0,0,1-.45.3.81.81,0,0,1-.65-.06.89.89,0,0,1-.41-.57.83.83,0,0,1,.57-1.1.77.77,0,0,1,.58.06.94.94,0,0,1,.38.61l-1.2.34a.62.62,0,0,0,.27.42.58.58,0,0,0,.39,0,.48.48,0,0,0,.24-.16.4.4,0,0,0,.07-.29Zm-.51-.4a.36.36,0,0,0-.5-.26.5.5,0,0,0-.25.15.66.66,0,0,0-.1.35Z"/>
            <path class="cls-1" d="M40.53,56l-.29.11-.92-2.48.29-.11Z"/>
            <path class="cls-1" d="M42.3,55.23l-.28.13L40.89,53l.28-.13Z"/>
            <path class="cls-1" d="M42.87,52.41l-.27.15-.2-.35.27-.15ZM44,54.34l-.27.15L42.85,53l.27-.15Z"/>
            <path class="cls-1"
                  d="M45.36,51.69l-.19.08a.7.7,0,0,0-.16.14l.13.05a.58.58,0,0,1,.14.16.53.53,0,0,1,.1.45.56.56,0,0,1-.26.39L45,53l-.17.05a.12.12,0,0,0,0,.08.11.11,0,0,0,0,.07s.08.06.15,0a1.1,1.1,0,0,0,.34-.19,1,1,0,0,1,.58-.24.36.36,0,0,1,.31.16.39.39,0,0,1,0,.44,1.29,1.29,0,0,1-.4.41,1.25,1.25,0,0,1-.57.26A.31.31,0,0,1,44.9,54a.28.28,0,0,1,0-.19.57.57,0,0,1,.08-.24.4.4,0,0,1-.19,0,.24.24,0,0,1-.14-.11.22.22,0,0,1,0-.18.67.67,0,0,1,.07-.18.66.66,0,0,1-.38-.25.6.6,0,0,1-.1-.46.67.67,0,0,1,.27-.39.61.61,0,0,1,.22-.1.5.5,0,0,1,.21,0,1.17,1.17,0,0,1,.13-.25.71.71,0,0,1,.21-.17Zm-.33.6a.4.4,0,0,0-.21-.16.29.29,0,0,0-.24.06.3.3,0,0,0-.14.2.36.36,0,0,0,.08.25.34.34,0,0,0,.2.16.3.3,0,0,0,.25,0,.27.27,0,0,0,.13-.21A.36.36,0,0,0,45,52.29Zm.94.91a.17.17,0,0,0-.12-.06c-.07,0-.17,0-.33.15l-.14.09-.22.12a.45.45,0,0,0-.08.18.25.25,0,0,0,0,.13.19.19,0,0,0,.19.06,1,1,0,0,0,.4-.2A.85.85,0,0,0,46,53.4.18.18,0,0,0,46,53.2Z"/>
            <path class="cls-1"
                  d="M47.26,51.28a.66.66,0,0,1,.09.51.79.79,0,0,1-.29.45.78.78,0,0,1-.62.2,1,1,0,0,1-.83-1,.83.83,0,0,1,.32-.57.7.7,0,0,1,.54-.17.93.93,0,0,1,.6.4l-1,.79a.62.62,0,0,0,.42.28.53.53,0,0,0,.37-.12.43.43,0,0,0,.16-.25.42.42,0,0,0,0-.28Zm-.62-.17a.47.47,0,0,0-.3-.15.49.49,0,0,0-.43.36.57.57,0,0,0,0,.35Z"/>
            <path class="cls-1"
                  d="M49,50.44l-.22.22L48,49.85a.44.44,0,0,0-.27-.14.32.32,0,0,0-.26.09.52.52,0,0,0-.13.41.77.77,0,0,0,.23.5l.55.57-.22.21-1.2-1.25.22-.21.23.23a.91.91,0,0,1,0-.37.67.67,0,0,1,.21-.33.53.53,0,0,1,.41-.18.57.57,0,0,1,.37.18Z"/>
            <path class="cls-1"
                  d="M50.23,49a.65.65,0,0,1-.08.17.85.85,0,0,1-.16.22.6.6,0,0,1-.41.23.53.53,0,0,1-.44-.16l-.69-.61-.35.39-.19-.16.35-.4-.45-.4.2-.23.46.4.42-.47.18.16-.42.48.71.62a.28.28,0,0,0,.2.09.25.25,0,0,0,.21-.11,1.33,1.33,0,0,0,.17-.23.82.82,0,0,0,.06-.19Z"/>
            <path class="cls-1"
                  d="M52.53,45.83l-.85,1.34-2.23-1.42.8-1.27.25.16-.62,1,.7.44.56-.89.25.15-.56.89.8.51.65-1Z"/>
            <path class="cls-1"
                  d="M53.39,44.22l-.15.28-.2-.11a.51.51,0,0,1,.07.28A.63.63,0,0,1,53,45a.68.68,0,0,1-.44.37,1,1,0,0,1-.7-.13.93.93,0,0,1-.5-.5.69.69,0,0,1,0-.58.64.64,0,0,1,.2-.23.62.62,0,0,1,.28-.09l-1-.53L51,43Zm-.92-.13A.77.77,0,0,0,52,44a.42.42,0,0,0-.3.21.4.4,0,0,0,0,.38.82.82,0,0,0,.36.32.77.77,0,0,0,.46.11.39.39,0,0,0,.3-.23.41.41,0,0,0,0-.36A.8.8,0,0,0,52.47,44.09Z"/>
            <path class="cls-1"
                  d="M54.16,42.44l-.12.29-.3-.13a.92.92,0,0,1,.14.35.71.71,0,0,1-.06.39.54.54,0,0,1-.31.32.53.53,0,0,1-.41,0L52,43.16l.13-.29,1,.44a.43.43,0,0,0,.31,0,.31.31,0,0,0,.2-.19.52.52,0,0,0-.05-.43.77.77,0,0,0-.41-.36l-.72-.31.12-.29Z"/>
            <path class="cls-1"
                  d="M54.14,40.38a.66.66,0,0,1,.42.38.84.84,0,0,1-.4,1.08.93.93,0,0,1-.7,0,.9.9,0,0,1-.55-.45.81.81,0,0,1,0-.63.79.79,0,0,1,.34-.46.56.56,0,0,1,.47-.06l-.11.33a.29.29,0,0,0-.28,0,.49.49,0,0,0-.15.24.49.49,0,0,0,0,.37.81.81,0,0,0,.9.29.46.46,0,0,0,.24-.27.52.52,0,0,0,0-.35A.41.41,0,0,0,54,40.7Z"/>
            <path class="cls-1"
                  d="M55.27,38.72l-.09.36-.09,0a.3.3,0,0,1-.13,0,.79.79,0,0,1,.12.3.92.92,0,0,1,0,.33.73.73,0,0,1-.22.38.44.44,0,0,1-.39.08.47.47,0,0,1-.32-.24.87.87,0,0,1-.07-.51,2.82,2.82,0,0,0,0-.39c0-.11,0-.17-.09-.19a.33.33,0,0,0-.19,0,.35.35,0,0,0-.16.27.44.44,0,0,0,0,.28.35.35,0,0,0,.16.16l-.08.33a.56.56,0,0,1-.33-.31.85.85,0,0,1,0-.53.78.78,0,0,1,.28-.46.59.59,0,0,1,.46-.06l.83.2a.33.33,0,0,0,.17,0A.64.64,0,0,0,55.27,38.72Zm-.66.28-.3-.07a1.28,1.28,0,0,1,0,.19c0,.06,0,.15,0,.29a.5.5,0,0,0,0,.32.31.31,0,0,0,.16.11.29.29,0,0,0,.18,0,.39.39,0,0,0,.12-.19.66.66,0,0,0,0-.31A.52.52,0,0,0,54.61,39Z"/>
            <path class="cls-1"
                  d="M55.53,36.9a1.23,1.23,0,0,1,0,.45.66.66,0,0,1-.22.42.55.55,0,0,1-.46.1l-.91-.14-.09.52-.24,0,.08-.52-.59-.1,0-.3.6.09.1-.63.25,0-.1.63.93.15a.36.36,0,0,0,.21,0,.27.27,0,0,0,.13-.22,1.38,1.38,0,0,0,0-.28.87.87,0,0,0-.05-.19Z"/>
            <path class="cls-1" d="M53.47,35.41l0,.31-.41,0,0-.31Zm2.22.17,0,.31-1.73-.13,0-.31Z"/>
            <path class="cls-1"
                  d="M54.88,33a.9.9,0,0,1,.65.24.79.79,0,0,1,.25.59.82.82,0,0,1-.24.59.87.87,0,0,1-.65.25.88.88,0,0,1-.65-.24.79.79,0,0,1-.25-.59.78.78,0,0,1,.24-.59A.85.85,0,0,1,54.88,33Zm0,.34a.59.59,0,0,0-.46.16.44.44,0,0,0-.16.34.54.54,0,0,0,.16.34.66.66,0,0,0,.47.15.6.6,0,0,0,.46-.16.46.46,0,0,0,.15-.34.48.48,0,0,0-.15-.34A.66.66,0,0,0,54.88,33.31Z"/>
            <path class="cls-1"
                  d="M55.6,31.13l0,.31-1.11.09a.43.43,0,0,0-.28.12.3.3,0,0,0-.09.26.51.51,0,0,0,.24.36.81.81,0,0,0,.54.13l.78-.07,0,.31L54,32.79l0-.31.33,0a1,1,0,0,1-.29-.24.71.71,0,0,1-.12-.37.5.5,0,0,1,.12-.43.53.53,0,0,1,.37-.18Z"/>
            <path class="cls-2"
                  d="M32.14,33.54c.11-.25.21-.47.32-.69a3.74,3.74,0,0,1,.6-.83,3.22,3.22,0,0,1,3.09-.84c.08,0,.16.12.19.2a4,4,0,0,1,.16.52.28.28,0,0,0,.29.22c.34,0,.67.11,1,.18a.34.34,0,0,1,.31.27c0,.24.2.29.42.33a7.15,7.15,0,0,1,.9.27c.29.09.31.38.45.59,0,0,0,.05,0,.08.1.27.24.45.58.4a.47.47,0,0,1,.35.22c.5.85,1,1.72,1.47,2.58s1,1.8,1.52,2.69c.62,1.11,1.26,2.22,1.88,3.33a.91.91,0,0,1,.07.41c0,.18-.15.28-.37.28H34c-.46,0-.91,0-1.37,0s-.71,0-1.07,0h-11c-.23,0-1.41,0-1.61,0-.42,0-.48-.36-.34-.62.81-1.46,1.64-2.91,2.46-4.36l2.25-4,.12-.21a.5.5,0,0,1,.55-.33.28.28,0,0,0,.36-.21c0-.11.12-.21.15-.32.1-.44.45-.58.81-.68a5.42,5.42,0,0,1,.65-.14c.17,0,.23-.13.26-.27a.35.35,0,0,1,.3-.31c.34-.07.69-.13,1-.18.14,0,.24,0,.27-.21s.12-.31.15-.48.18-.26.37-.3a3.23,3.23,0,0,1,3.5,1.66C31.9,33,32,33.27,32.14,33.54Zm6,5.42L38,38.31c-.3-1.07-.58-2.14-.9-3.2s-.7-2.28-1.06-3.43a.2.2,0,0,0-.12-.13,2.73,2.73,0,0,0-1.9.31,3.34,3.34,0,0,0-1.6,2.87c0,2.59,0,5.18,0,7.77,0,0,0,.11,0,.21a.7.7,0,0,0,.09-.16A6.25,6.25,0,0,1,34,39.88a3.6,3.6,0,0,1,3.3-1.11Zm-6.27,3.7h0a.51.51,0,0,0,0-.13c0-2.5,0-5,0-7.51a4.13,4.13,0,0,0-.4-1.77,2.76,2.76,0,0,0-3-1.71.24.24,0,0,0-.25.19c-.05.15-.1.3-.14.46-.22.71-.44,1.41-.65,2.12s-.39,1.27-.57,1.91l-.54,1.92c-.07.27-.14.54-.22.82l.67-.15a3.64,3.64,0,0,1,2.57.34,5.05,5.05,0,0,1,2.13,2.56C31.64,42,31.75,42.35,31.87,42.66Zm6.55-9.34a.71.71,0,0,0,0,.19L39,35l.66,1.82.8,2.28c.18.5.36,1,.53,1.5A.49.49,0,0,1,41,41c-.05.06-.22.06-.33,0-.64-.12-1.26-.28-1.9-.37a6.8,6.8,0,0,0-2.73.16,5.83,5.83,0,0,0-2,1c-.21.15-.39.33-.58.49l0,.06a16,16,0,0,1,9.64-.58L42.73,41c-.34-.74-.68-1.49-1-2.24s-.75-1.65-1.14-2.48-.77-1.65-1.17-2.47a.49.49,0,0,0-.25-.26A5.1,5.1,0,0,0,38.42,33.32Zm-7.55,9a5.62,5.62,0,0,0-3.21-1.62,8.33,8.33,0,0,0-3.51.21,4.69,4.69,0,0,1-.65.14c-.2,0-.3-.1-.24-.3s.11-.3.17-.45c.21-.62.43-1.23.65-1.85s.51-1.48.78-2.22.53-1.48.8-2.21l.22-.64a1.47,1.47,0,0,0-.25,0c-.29.11-.62.1-.78.45-.52,1.14-1.05,2.26-1.58,3.39l-1.82,4c-.08.17-.15.35-.24.56A16.16,16.16,0,0,1,30.87,42.3Zm-.12.54,0-.06c-.26-.1-.51-.21-.78-.29-.65-.18-1.3-.36-2-.5a9.16,9.16,0,0,0-1.56-.22,19.61,19.61,0,0,0-2.3,0c-.73,0-1.46.16-2.18.27-.37.05-.72.17-1.08.23a.39.39,0,0,1-.29-.08s0-.17,0-.23l1.32-2.89c.63-1.36,1.26-2.72,1.9-4.08.06-.13.11-.27.17-.41l-.07-.06c-.07.06-.16.1-.2.17l-.9,1.59-1.65,2.91c-.55,1-1.1,2-1.66,3l-.38.7Zm14.36,0a.55.55,0,0,0,0-.12q-1.11-2-2.23-3.95l-1.52-2.71-.79-1.38c-.06-.12-.14-.18-.27-.08.4.85.8,1.69,1.19,2.54.49,1,1,2.1,1.45,3.15.25.53.5,1.06.73,1.59a.44.44,0,0,1,0,.34c0,.06-.21.06-.31,0-.53-.1-1.06-.24-1.6-.32s-1.25-.15-1.88-.2A13.17,13.17,0,0,0,36,42c-.8.18-1.57.46-2.35.7l-.15.11ZM36.72,32.53c.15.51.29.94.42,1.36.18.63.37,1.25.55,1.88.24.83.47,1.66.71,2.49.09.31.18.62.26.93a.37.37,0,0,1,0,.28c0,.05-.19,0-.28,0-.45-.1-.89-.24-1.35-.31a2.91,2.91,0,0,0-1.89.36,4.34,4.34,0,0,0-1.53,1.54c-.14.23-.25.47-.38.71a.41.41,0,0,0,.2-.09c.24-.18.48-.38.74-.54a6.57,6.57,0,0,1,3.28-1,9.44,9.44,0,0,1,2.43.21l.61.13c-.29-.84-.57-1.64-.85-2.43-.22-.63-.45-1.25-.68-1.87s-.43-1.23-.65-1.84l-.5-1.4c0-.08-.08-.2-.15-.22C37.34,32.65,37.05,32.6,36.72,32.53Zm-12.9,8c2.63-.62,5.09-.52,7.23,1.31a4.75,4.75,0,0,0-1-1.58,3.11,3.11,0,0,0-2.91-1c-.42.08-.83.21-1.25.31a.34.34,0,0,1-.23,0s-.06-.14,0-.21c.12-.45.24-.9.37-1.36.22-.8.44-1.6.67-2.4s.46-1.5.69-2.25c.07-.22.12-.43.2-.7l-.78.15c-.15,0-.2.11-.25.25-.21.6-.43,1.19-.65,1.79l-.79,2.19-.93,2.64C24,39.86,23.94,40.16,23.82,40.49Z"/>
            <path class="cls-3"
                  d="M19.19,38.57l1.7,1.48,2.52-1.71,1.65-.41H44.9l1-7.93-8.43-3.43-14.9,1.95S19.8,31,19.7,31.17s-1.37,5.75-1.37,5.75Z"/>
            <path class="cls-3"
                  d="M25.06,26.57c-1.36.16-1.5.26-1.5,1.73v6.45c0,2.3-.37,3.5-1.54,4.55a5.77,5.77,0,0,1-1.62,1l-.28-.53a3.09,3.09,0,0,0,1.75-2.3A19.74,19.74,0,0,0,22,34.17V28.3c0-1.47-.16-1.59-1.59-1.73v-.49h4.61Z"/>
            <path class="cls-3"
                  d="M20,41.37l-1-1.95.77-.38a2.24,2.24,0,0,0,1.29-1.71,18.45,18.45,0,0,0,.16-3.16V28.3a4.65,4.65,0,0,0,0-.79,5.32,5.32,0,0,0-.8-.12l-.74-.07V25.26h6.25v2l-.73.08a4.83,4.83,0,0,0-.73.12,5.69,5.69,0,0,0,0,.79v6.45c0,2.18-.3,3.81-1.81,5.16a6.38,6.38,0,0,1-1.83,1.15ZM22.7,26.91a3,3,0,0,1,.1.38,1.93,1.93,0,0,1,.09-.38Z"/>
            <path class="cls-3"
                  d="M25.6,37.41v-.49c1.42-.15,1.56-.22,1.56-1.7V28.3c0-1.5-.14-1.57-1.56-1.73v-.49h4.67v.49c-1.45.16-1.59.23-1.59,1.73v6.92c0,1.5.14,1.55,1.59,1.7v.49Z"/>
            <path class="cls-3"
                  d="M31.09,38.24H24.77V36.18l.74-.08A4.52,4.52,0,0,0,26.3,36a4.15,4.15,0,0,0,0-.76V28.3a4.48,4.48,0,0,0,0-.79,7.79,7.79,0,0,0-.79-.12l-.74-.08v-2h6.32v2l-.73.08a7.81,7.81,0,0,0-.81.12,4.48,4.48,0,0,0,0,.79v6.92a6.28,6.28,0,0,0,0,.77,7.81,7.81,0,0,0,.82.11l.73.08Zm-3.26-1.65H28c0-.12-.06-.24-.09-.38A2.11,2.11,0,0,1,27.83,36.59Zm0-9.68a1.93,1.93,0,0,1,.09.38,3,3,0,0,1,.1-.38Z"/>
            <path class="cls-3"
                  d="M31.09,37.41v-.49c1.43-.15,1.57-.22,1.57-1.7V28.3c0-1.5-.14-1.57-1.57-1.73v-.49h4.67v.49c-1.45.16-1.59.23-1.59,1.73v6.92c0,1.5.14,1.55,1.59,1.7v.49Z"/>
            <path class="cls-3"
                  d="M36.58,38.24H30.26V36.18L31,36.1a4.52,4.52,0,0,0,.79-.12,4.15,4.15,0,0,0,0-.76V28.3a4.48,4.48,0,0,0,0-.79,7.79,7.79,0,0,0-.79-.12l-.74-.08v-2h6.32v2l-.73.08a7.81,7.81,0,0,0-.81.12,4.48,4.48,0,0,0,0,.79v6.92A6.28,6.28,0,0,0,35,36a7.81,7.81,0,0,0,.82.11l.73.08Zm-3.26-1.65h.18c0-.12-.06-.24-.09-.38A2.11,2.11,0,0,1,33.32,36.59Zm0-9.68a1.93,1.93,0,0,1,.09.38,3,3,0,0,1,.1-.38Z"/>
            <path class="cls-3"
                  d="M45.62,34.64c-.1.45-.57,2.25-.74,2.77H36.4v-.49c1.62-.12,1.75-.27,1.75-1.7V28.33c0-1.55-.2-1.64-1.5-1.76v-.49H42c1.64,0,2.32,0,2.53,0,0,.43.09,1.74.16,2.66l-.53.09a5.48,5.48,0,0,0-.52-1.32c-.28-.58-.68-.7-1.73-.7H40.24c-.54,0-.58,0-.58.56v3.85H41.6c1.31,0,1.39-.26,1.6-1.45h.54v3.59H43.2c-.22-1.25-.36-1.43-1.62-1.43H39.66v3.47c0,1.22.39,1.33,1.26,1.35h1.62c1.06,0,1.24-.16,1.62-.61a7.58,7.58,0,0,0,.94-1.61Z"/>
            <path class="cls-3"
                  d="M45.47,38.24H35.58V36.16l.76-.06a4.68,4.68,0,0,0,.94-.13,4.84,4.84,0,0,0,0-.75V28.33a4.44,4.44,0,0,0,0-.84,5.36,5.36,0,0,0-.7-.1l-.75-.07V25.26H42c1.93,0,2.37,0,2.46,0l.86-.07,0,.86c0,.42.09,1.73.16,2.64l.06.75-1,.17v4.12l.08-.16,2,.52-.18.78c-.11.46-.58,2.28-.77,2.84ZM38.8,36.59h.25a1.81,1.81,0,0,1-.14-.43A2.7,2.7,0,0,1,38.8,36.59Zm1.73-.73a2.45,2.45,0,0,0,.4,0h1.61c.72,0,.73,0,1-.32l0,0a6.12,6.12,0,0,0,.8-1.39H42.51l-.12-.68a4.86,4.86,0,0,0-.17-.71,2.89,2.89,0,0,0-.64,0H40.49v2.64A2,2,0,0,0,40.53,35.86Zm0-5.5H41.6a3.65,3.65,0,0,0,.63,0,5.21,5.21,0,0,0,.16-.72l.12-.68h.81a5.26,5.26,0,0,0-.43-1.06v0c-.08-.15-.12-.24-1-.24h-1.4Zm-1.68-3.45a.57.57,0,0,1,0,.14c0-.05,0-.1,0-.14Z"/>
            <rect class="cls-3" x="24.89" y="26.08" width="12.38" height="0.49"/>
            <rect class="cls-3" x="24.07" y="25.26" width="14.03" height="2.14"/>
            <rect class="cls-3" x="26.55" y="36.92" width="10.72" height="0.49"/>
            <rect class="cls-3" x="25.72" y="36.1" width="12.37" height="2.14"/>
            <path class="cls-4"
                  d="M25.06,26.54c-1.36.16-1.5.26-1.5,1.73v6.45c0,2.3-.37,3.5-1.54,4.55a5.77,5.77,0,0,1-1.62,1l-.28-.53a3.09,3.09,0,0,0,1.75-2.3A19.68,19.68,0,0,0,22,34.14V28.27c0-1.47-.16-1.59-1.59-1.73v-.49h4.61Z"/>
            <path class="cls-4"
                  d="M25.6,37.38V36.9c1.42-.16,1.56-.23,1.56-1.71V28.27c0-1.5-.14-1.57-1.56-1.73v-.49h4.67v.49c-1.45.16-1.59.23-1.59,1.73v6.92c0,1.5.14,1.55,1.59,1.71v.48Z"/>
            <path class="cls-4"
                  d="M31.09,37.38V36.9c1.43-.16,1.57-.23,1.57-1.71V28.27c0-1.5-.14-1.57-1.57-1.73v-.49h4.67v.49c-1.45.16-1.59.23-1.59,1.73v6.92c0,1.5.14,1.55,1.59,1.71v.48Z"/>
            <path class="cls-4"
                  d="M45.62,34.61c-.1.46-.57,2.25-.74,2.77H36.4V36.9c1.62-.13,1.75-.28,1.75-1.71V28.3c0-1.55-.2-1.64-1.5-1.76v-.49H42c1.64,0,2.32,0,2.53,0,0,.43.09,1.74.16,2.66l-.53.09a5.48,5.48,0,0,0-.52-1.32c-.28-.58-.68-.7-1.73-.7H40.24c-.54,0-.58.05-.58.56v3.85H41.6c1.31,0,1.39-.26,1.6-1.45h.54V33.3H43.2c-.22-1.25-.36-1.42-1.62-1.42H39.66v3.46c0,1.22.39,1.33,1.26,1.35h1.62c1.06,0,1.24-.16,1.62-.61a7.33,7.33,0,0,0,.94-1.61Z"/>
            <rect class="cls-4" x="24.89" y="26.05" width="12.38" height="0.49"/>
            <rect class="cls-4" x="26.55" y="36.9" width="10.72" height="0.49"/>
            <path class="cls-2"
                  d="M29.89,20.9h-.41v1.18c0,.09,0,.21,0,.37h-.23c0-.16,0-.28,0-.37v-.73c-.05.12-.1.22-.15.32s-.13.21-.22.35a1.37,1.37,0,0,0-.17-.17,2.72,2.72,0,0,0,.32-.45,4.73,4.73,0,0,0,.2-.5h-.46v-.21l.38,0h.1v-.44l-.36.07a1.74,1.74,0,0,0-.11-.18l.34-.06c.16,0,.29-.06.37-.09a1,1,0,0,0,.23-.08.9.9,0,0,0,.14.2l-.21,0-.19,0v.5h.12l.29,0Zm-.08.27c.06,0,.12.12.19.19a1.22,1.22,0,0,0-.18.16,1.59,1.59,0,0,0-.3-.36.43.43,0,0,0,.15-.15A.94.94,0,0,0,29.81,21.17Zm.89-1c0-.14,0-.25,0-.31h.24a1.86,1.86,0,0,0,0,.27V21.4l.36-.08,0,.2-.39.07V22c0,.15,0,.29,0,.43h-.24c0-.14,0-.28,0-.43v-.37l-.45.08-.4.1-.07-.22.92-.16Zm-.39.76.26.25-.18.15a4.47,4.47,0,0,0-.42-.45l.14-.14Zm.05-.69.26.32-.19.13a2.76,2.76,0,0,0-.23-.31,1.22,1.22,0,0,0-.14-.16.7.7,0,0,0,.16-.14Z"/>
            <path class="cls-2"
                  d="M33.55,20.41v1.5c0,.22,0,.39,0,.52h-.24a3.7,3.7,0,0,0,0-.53V20.79a3.27,3.27,0,0,1-.25.44.52.52,0,0,0-.16-.17,3.47,3.47,0,0,0,.56-1.18l.26.09A1.32,1.32,0,0,0,33.55,20.41Zm1.94,0H33.75v-.18h1.74Zm-.16.4H33.91v-.19h1.42Zm0,.38H33.91V21l.75,0c.35,0,.57,0,.67,0Zm0,.68c0,.2,0,.35,0,.45H35.1v-.19h-1v.23h-.22c0-.11,0-.26,0-.46s0-.36,0-.47h1.38A4.17,4.17,0,0,0,35.29,21.9ZM35.1,22v-.37h-1V22Zm-.44-2,.06.17-.19.05a1,1,0,0,0-.14-.28l.2-.08C34.61,19.92,34.64,20,34.66,20Z"/>
            <path class="cls-2"
                  d="M89.47,35.26H84.93a29.14,29.14,0,0,0,2.83-9.78h3.83A28.84,28.84,0,0,1,89.47,35.26Zm0-22.28a19.94,19.94,0,0,1,1.91,5.14H87.15A21.8,21.8,0,0,0,85.24,13Zm.2,6.25a21.13,21.13,0,0,1,1.92,5H87.35a22.1,22.1,0,0,0-1.91-5Zm2.92-2v-3h14.82v3h-5V31.63h5.85v2.82H91.49V31.63h6.14V17.22Z"/>
            <path class="cls-2"
                  d="M120.53,18.43V16.91h-4.74V14h4.74V12.38h4.33V14H130V12.28h4.34V14h4.53v2.92h-4.53v1.52H130V16.91h-5.14V18h2.93v2.42h7.35v3.83h2.42a32.65,32.65,0,0,1,2.22,6.65h-3.63c-.34-1.41-.67-2.72-1-3.93v4.44c.07,2.62-1.24,3.89-3.93,3.83h-3.73V32.54h1.82a1.16,1.16,0,0,0,1.31-1.31V23.37h-2.82q.09,9.27-11.29,12.59V33.24q6.85-3.23,6.65-9.87H117V20.44h6.15v-2Zm-4.74,12.49a22.06,22.06,0,0,0,2.32-6.65h3.53a18,18,0,0,1-2.12,6.65Z"/>
            <path class="cls-2"
                  d="M146.75,17.12V15.3a3.5,3.5,0,0,0,2.12-2.92h3.43a3.63,3.63,0,0,1-.31,1.11h6.76v2.22H155v1.2a4.07,4.07,0,0,0-.1.71h4.33v2.22h-3.93a6.13,6.13,0,0,0,3.73,2.42v2.11c-2.76-.33-4.74-1.21-6-2.62-1.21,1.28-3.32,2.19-6.35,2.72v-2q3-.91,3.83-2.62h-3.83V17.62h4.44a1.57,1.57,0,0,1,.1-.5V15.71h-.81A7,7,0,0,1,146.75,17.12Zm2,18.14V24.47h19.35v7.16q0,3.63-3.83,3.63Zm15.32-8.07H152.7v1.52h11.39ZM163,32.74c.81,0,1.17-.37,1.11-1.11v-.5H152.7v1.61Zm-3.23-19.25h9.48v6.85q.09,3.22-3.13,3.13h-6.35Zm3.63,7.56h1.11c.81.06,1.18-.34,1.11-1.21V16h-2.22Z"/>
            <path class="cls-2"
                  d="M190.51,12.68h3.93V15.4a4.79,4.79,0,0,0,2.62-2.21h3.83A7.1,7.1,0,0,1,194.44,18v1.52c0,.6.34.9,1,.9h1.31c.67.07,1-.27.91-1v-.5h3.12v1.21c.14,2.15-.94,3.19-3.22,3.12h-3.93c-2,.07-3.06-.8-3.13-2.62h-3.73a.88.88,0,0,0-.1-.4.57.57,0,0,0-.1-.4,69.76,69.76,0,0,1-8.77.4V17.32a17.9,17.9,0,0,0,3.83-4.74h4.74a16.78,16.78,0,0,1-4.33,4.74c1.74,0,3,0,3.73-.1a6.65,6.65,0,0,0-1-2.12h3.43a18.62,18.62,0,0,1,2.31,5.44V12.68Zm-5.94,20.26c.74.07,1.07-.27,1-1v-.5h-3.43v4.13h-3.73V21.15h11v11c.07,2.29-1,3.39-3.22,3.33h-2.32V32.94Zm1-9.17h-3.43v1.51h3.43Zm-3.43,3.83v1.51h3.43V27.6ZM190.51,24h4v3.22a5,5,0,0,0,2.52-2.62H201q-1.71,4.84-6.45,5.35v1.91a.81.81,0,0,0,.91.91h1.21c.67.07,1-.27.91-1v-.5h3.22v1.21q.11,3-3.22,2.92h-3.83c-2.22.06-3.29-1-3.23-3.13Z"/>
            <path class="cls-2"
                  d="M209.58,16.81V14H212V12.48h3.93V14h2v2.22a11.21,11.21,0,0,1,1-1.81h3.43a37,37,0,0,1-2.32,4.33h.2v2.82h-2.62a13.19,13.19,0,0,1-1.71,1.51h4v2.72a8.71,8.71,0,0,1-2,2.12q1.5-.2,3.12-.3v2.62c-1.28.27-2.52.5-3.73.7v1.41c.07,2.15-1,3.19-3.22,3.13h-3.33V32.94h1.41q1.22,0,1.11-1.11v-.5c-1.48.13-3.06.2-4.74.2V28.4c.61,0,1.45,0,2.52-.1h2.22v-.7a9.48,9.48,0,0,0,2.22-1.82h-4a14.07,14.07,0,0,1-1.72.81l-1.21.6V24.47a42.16,42.16,0,0,0,4.64-2.92h-4.44V18.73H212V16.81Zm6.55,1.92a18.53,18.53,0,0,0,1.31-1.92h-1.51v1.92Zm15.93-3.53V18h-1.31c-.07,4.51-1,8.13-2.73,10.89a18.6,18.6,0,0,0,3.63,3.63v3A22,22,0,0,1,226,31.43a39.5,39.5,0,0,1-5.85,4.23v-3a23.58,23.58,0,0,0,3.93-3.83,21.49,21.49,0,0,1-2.52-7.26,6.74,6.74,0,0,0-1,.51V19.23A12.34,12.34,0,0,0,223,12.58h3.82c-.06.27-.13.67-.2,1.21s-.23,1.14-.3,1.41Zm-7.46,3.73A26.91,26.91,0,0,0,226,25.18,26.44,26.44,0,0,0,227.22,18h-2A3.76,3.76,0,0,0,224.6,18.93Z"/>
            <path class="cls-2"
                  d="M239.63,16.71V13.89h9V12.58h5.24v1.31h8.87v2.82H250.82a20.82,20.82,0,0,1-2.52,1.62l-.6.3h4.73c1.08-.07,2.15-.17,3.23-.3-.27-.34-.57-.71-.91-1.11h3.83a18.5,18.5,0,0,1,2.92,4.43h-4.23a2.6,2.6,0,0,0-.1-.6l-.1-.2q-3.23.3-9.68.5h-5.24V18.63a5.42,5.42,0,0,0,.51-.3,21.56,21.56,0,0,0,2.72-1.62Zm15.83,16.43c.67.07,1-.27.9-1v-.2H246.19v3.63h-4.34V22.16h19V32.33q.09,3.33-3.13,3.23h-3V33.14Zm.9-8.36H246.19V26h10.17ZM246.19,28.4v1.11h10.17V28.4Z"/>
            <path class="cls-2"
                  d="M270.8,16.71V13.79h9.27v2.92h-3.13c-.06.2-.13.47-.2.81a17.12,17.12,0,0,1-.7,2.42h3.83V30.62c.06,2.15-1,3.19-3.23,3.13H272V24.57c-.14.07-.37.21-.71.41a4.69,4.69,0,0,0-.81.4V22.66A11,11,0,0,0,273,16.71Zm5.84,13.71V22.66h-1.31v8.57h.5Q276.75,31.23,276.64,30.42Zm3.73-5.74V21.85h1.51V16.41h-1.21V13.59h12.9v2.82h-1.81v5.44H294v2.83h-2.22V36h-3.83V24.68h-2.12v1.61a9.49,9.49,0,0,1-5.54,9.77V33.24q1.82-2.31,1.61-6.75V24.68Zm5.44-8.27v5.44h2.12V16.41Z"/>
            <path class="cls-2"
                  d="M324.33,14.19v4.94H320.1V17H306.29v2.11h-4.23V14.19h8.67V12.68h5v1.51Zm-22.27,6.35c2.95-.33,5.07-1.21,6.35-2.62h4.23q-2.22,4.84-10.58,4.84Zm1.31,5.85V23.47h4.94V21.85h4.63v1.62h7.16v8c-.07.74.27,1.07,1,1s.9-.34.9-1v-1h3.13v1.41c.06,2.22-1,3.29-3.13,3.23h-2.92c-2.42.06-3.59-1.05-3.53-3.33V26.39h-2.72q0,6.64-10.58,9.47V33.14q5.94-2.52,5.95-6.75Zm20.86-5.85v2.22q-8.37,0-10.58-4.84h4.23C319.16,19.33,321.27,20.21,324.23,20.54Z"/>
            <path class="cls-2"
                  d="M339.87,22.26a9.73,9.73,0,0,1,1.41,5.34q0,5.24-4.63,5.24V29.71q1.31-.09,1.41-2.52a7,7,0,0,0-1.41-4.73,24.5,24.5,0,0,0,1.1-6.35h-1.41V35.76H333V13.29h8.06v2.82A26.66,26.66,0,0,1,339.87,22.26ZM341.48,27V24.17h14.21V27h-3.12v5.14c0,.41.13.61.4.61h.2c.27,0,.41-.2.41-.61v-.8H356v1.21c.06,1.88-.81,2.78-2.62,2.72h-1.82q-2.93.09-2.82-3.13V27h-1.31q0,6.45-6.55,8.87V33.24c1.81-1.27,2.72-3.36,2.72-6.25Zm3.63-10.08v1.82h-3.73V14.29H346V12.68h4.74v1.61h4.73v4.44h-3.73V16.91Zm-2.32,5.45V19.54h11.39v2.82Z"/>
            <path class="cls-2"
                  d="M87.81,43.13h1.52v5.72c0,1.94-.88,2.89-2.73,2.86-1.56.06-2.43-.8-2.6-2.6l1.47-.3c.18,1.13.57,1.66,1.17,1.6.78,0,1.17-.5,1.17-1.51Z"/>
            <path class="cls-2" d="M90.76,43.13h1.43v8.45H90.76Z"/>
            <path class="cls-2"
                  d="M99.17,51.58l-.73-2.08H95.57l-.73,2.08H93.19l3.21-8.45h1.25l3.21,8.45ZM96,48.2H98L97,45Z"/>
            <path class="cls-2"
                  d="M107.45,48.29V43.13h1.48v8.45h-1.44l-3.64-5.33a3.71,3.71,0,0,1-.43-.73c-.14-.23-.25-.41-.3-.52,0,.57.08,1,.08,1.43v5.15h-1.43V43.13h1.48l3.55,5.16a12.78,12.78,0,0,1,.74,1.3A11.66,11.66,0,0,1,107.45,48.29Z"/>
            <path class="cls-2"
                  d="M113.74,47h3.81v3.16a3.85,3.85,0,0,1-3.51,1.6q-3.95-.16-4.07-4.37c.11-2.78,1.43-4.22,3.94-4.34a3.57,3.57,0,0,1,3.6,2.52l-1.39.6a2.18,2.18,0,0,0-2.21-1.77c-1.56.11-2.38,1.11-2.47,3,.09,2,.94,3,2.56,3.12a2.87,2.87,0,0,0,2.12-.78V48.25h-2.38Z"/>
            <path class="cls-2"
                  d="M125.27,45.34l-1.48.48a2,2,0,0,0-2-1.56c-1,.06-1.53.4-1.56,1s.56,1,1.86,1.17q3.51.57,3.38,2.73c-.11,1.59-1.22,2.43-3.33,2.51A3.28,3.28,0,0,1,118.42,49l1.47-.47a2.09,2.09,0,0,0,2.26,1.9c1.18,0,1.8-.43,1.86-1.21s-.62-1.11-2.12-1.34c-2.23-.38-3.28-1.22-3.17-2.52.09-1.53,1.14-2.32,3.17-2.38C123.74,43,124.86,43.78,125.27,45.34Z"/>
            <path class="cls-2"
                  d="M132.2,43.13h1.43V48c0,2.48-1.27,3.72-3.72,3.72s-3.67-1.21-3.65-3.72V43.13h1.44v4.81c0,1.65.73,2.47,2.21,2.47s2.32-.79,2.29-2.47Z"/>
            <path class="cls-2" d="M138.14,43.13h1.43v8.45h-1.43Z"/>
            <path class="cls-2"
                  d="M146.86,48.29V43.13h1.47v8.45H146.9l-3.64-5.33a3.55,3.55,0,0,1-.44-.73c-.14-.23-.24-.41-.3-.52a14.14,14.14,0,0,1,.09,1.43v5.15h-1.43V43.13h1.47l3.56,5.16a12.91,12.91,0,0,1,.73,1.3A11.33,11.33,0,0,1,146.86,48.29Z"/>
            <path class="cls-2"
                  d="M156.05,45.34l-1.48.48a2,2,0,0,0-2-1.56c-1,.06-1.53.4-1.56,1s.56,1,1.86,1.17q3.51.57,3.38,2.73c-.11,1.59-1.23,2.43-3.34,2.51A3.27,3.27,0,0,1,149.2,49l1.47-.47c.32,1.33,1.07,2,2.25,1.9s1.81-.43,1.87-1.21-.62-1.11-2.13-1.34c-2.22-.38-3.28-1.22-3.16-2.52.09-1.53,1.14-2.32,3.16-2.38C154.51,43,155.64,43.78,156.05,45.34Z"/>
            <path class="cls-2" d="M163,44.43h-2.47v7.15H159V44.43h-2.47v-1.3H163Z"/>
            <path class="cls-2" d="M164,43.13h1.43v8.45H164Z"/>
            <path class="cls-2" d="M172.82,44.43h-2.47v7.15h-1.47V44.43h-2.47v-1.3h6.41Z"/>
            <path class="cls-2"
                  d="M179.58,43.13H181V48c0,2.48-1.27,3.72-3.72,3.72s-3.67-1.21-3.64-3.72V43.13h1.43v4.81c0,1.65.73,2.47,2.21,2.47s2.32-.79,2.29-2.47Z"/>
            <path class="cls-2" d="M188.21,44.43h-2.47v7.15h-1.47V44.43h-2.48v-1.3h6.42Z"/>
            <path class="cls-2" d="M190.46,50.28h4.12v1.3H189V43.13h5.42v1.3h-4V46.6h3.73v1.3h-3.73Z"/>
            <path class="cls-2"
                  d="M202.6,43q3.69.26,3.9,4.38-.17,4.24-4,4.33-3.78-.16-3.91-4.29C198.73,44.58,200.06,43.1,202.6,43Zm0,7.41c1.62-.06,2.44-1.07,2.47-3s-.87-3-2.43-3.08c-1.59.09-2.43,1.11-2.51,3.08S201,50.28,202.56,50.37Z"/>
            <path class="cls-2" d="M212.79,44.43h-3.86v2.13h3.34v1.3h-3.34v3.72H207.5V43.13h5.29Z"/>
            <path class="cls-2" d="M216.91,43.13h1.43v8.45h-1.43Z"/>
            <path class="cls-2"
                  d="M225.62,48.29V43.13h1.47v8.45h-1.43L222,46.25a3.71,3.71,0,0,1-.43-.73,4.35,4.35,0,0,1-.3-.52c.05.57.08,1,.08,1.43v5.15h-1.43V43.13h1.48L225,48.29a12.78,12.78,0,0,1,.74,1.3A11.66,11.66,0,0,1,225.62,48.29Z"/>
            <path class="cls-2" d="M234.38,44.43h-2.47v7.15h-1.48V44.43H228v-1.3h6.42Z"/>
            <path class="cls-2" d="M236.63,50.28h4.12v1.3H235.2V43.13h5.42v1.3h-4V46.6h3.73v1.3h-3.73Z"/>
            <path class="cls-2" d="M242.09,43.13h1.48v7.15h3.68v1.3h-5.16Z"/>
            <path class="cls-2" d="M248.25,43.13h1.47v7.15h3.69v1.3h-5.16Z"/>
            <path class="cls-2" d="M254.45,43.13h1.43v8.45h-1.43Z"/>
            <path class="cls-2"
                  d="M260.82,47h3.81v3.16a3.85,3.85,0,0,1-3.51,1.6q-3.94-.16-4.07-4.37c.11-2.78,1.43-4.22,3.94-4.34a3.56,3.56,0,0,1,3.6,2.52l-1.39.6A2.18,2.18,0,0,0,261,44.35c-1.56.11-2.38,1.11-2.47,3,.09,2,.94,3,2.56,3.12a2.87,2.87,0,0,0,2.12-.78V48.25h-2.38Z"/>
            <path class="cls-2" d="M267.41,50.28h4.12v1.3H266V43.13h5.42v1.3h-4V46.6h3.73v1.3h-3.73Z"/>
            <path class="cls-2"
                  d="M278.55,48.29V43.13H280v8.45h-1.43L275,46.25a3.25,3.25,0,0,1-.43-.73c-.15-.23-.25-.41-.31-.52a14.14,14.14,0,0,1,.09,1.43v5.15h-1.43V43.13h1.47l3.56,5.16a12.78,12.78,0,0,1,.74,1.3A11.66,11.66,0,0,1,278.55,48.29Z"/>
            <path class="cls-2" d="M287.31,44.43h-2.48v7.15h-1.47V44.43h-2.47v-1.3h6.42Z"/>
            <path class="cls-2" d="M292.64,50.28h4.12v1.3h-5.55V43.13h5.42v1.3h-4V46.6h3.73v1.3h-3.73Z"/>
            <path class="cls-2"
                  d="M300.87,51.58h-2.81V43.13h2.86q3.76.13,3.9,4.21Q304.82,51.59,300.87,51.58Zm0-7.15h-1.38v5.85h1.38c1.71,0,2.55-.93,2.52-2.9S302.55,44.43,300.87,44.43Z"/>
            <path class="cls-2"
                  d="M311.88,43.13h1.43V48c0,2.48-1.27,3.72-3.72,3.72S305.92,50.5,306,48V43.13h1.43v4.81c0,1.65.73,2.47,2.21,2.47s2.32-.79,2.29-2.47Z"/>
            <path class="cls-2"
                  d="M321,45.43l-1.47.56c-.29-1.12-.87-1.67-1.74-1.64-1.36.08-2,1.08-2,3s.73,2.94,2,3c1,0,1.58-.66,1.87-2l1.47.43c-.46,2-1.57,2.95-3.34,2.86q-3.46-.14-3.6-4.33c.12-2.75,1.32-4.19,3.6-4.34A3.11,3.11,0,0,1,321,45.43Z"/>
            <path class="cls-2"
                  d="M327.45,51.58l-.74-2.08h-2.86l-.74,2.08h-1.65l3.21-8.45h1.26l3.21,8.45Zm-3.21-3.38h2.08l-1-3.2Z"/>
            <path class="cls-2" d="M335.86,44.43h-2.47v7.15h-1.48V44.43h-2.47v-1.3h6.42Z"/>
            <path class="cls-2" d="M336.85,43.13h1.43v8.45h-1.43Z"/>
            <path class="cls-2"
                  d="M343.49,43q3.67.26,3.9,4.38-.18,4.24-4,4.33-3.78-.16-3.9-4.29C339.61,44.58,340.94,43.1,343.49,43Zm-.05,7.41c1.62-.06,2.44-1.07,2.47-3s-.86-3-2.42-3.08c-1.59.09-2.43,1.11-2.52,3.08S341.85,50.28,343.44,50.37Z"/>
            <path class="cls-2"
                  d="M354.19,48.29V43.13h1.48v8.45h-1.43l-3.65-5.33a3.71,3.71,0,0,1-.43-.73c-.14-.23-.24-.41-.3-.52a13.74,13.74,0,0,1,.08,1.43v5.15h-1.43V43.13H350l3.55,5.16a12.78,12.78,0,0,1,.74,1.3A11.66,11.66,0,0,1,354.19,48.29Z"/>
        </g>
    </g>
</svg>